<svg width="590" height="535" viewBox="0 0 590 535" fill="none" xmlns="http://www.w3.org/2000/svg">
<path d="M314.438 534.897C303.073 535.596 293.178 532.735 284.829 526.308C264.387 510.567 253.066 473.157 251.182 415.119C249.683 368.909 254.103 309.512 264.32 238.575C281.709 117.851 310.263 3.97546 310.549 2.83826C310.706 2.21686 311.336 1.83746 311.962 1.99567C312.584 2.15271 312.961 2.78436 312.805 3.40686C312.518 4.54065 283.989 118.315 266.62 238.923C256.424 309.722 252.013 368.979 253.507 415.05C255.366 472.358 266.382 509.172 286.25 524.467C302.18 536.734 324.278 535.225 351.931 519.982C552.351 409.5 588.185 438.17 589.612 439.442C590.091 439.87 590.132 440.606 589.704 441.083C589.275 441.561 588.539 441.602 588.062 441.174C587.986 441.109 579.013 433.879 545.615 440.227C514.831 446.083 456.437 465.028 353.054 522.016C338.754 529.899 325.854 534.195 314.438 534.897Z" fill="#736853"/>
<path d="M291.959 519.225C281.611 519.863 272.54 517.372 264.802 511.749C245.423 497.665 234.333 463.692 231.844 410.774C229.863 368.691 233.256 314.507 241.926 249.729C256.682 139.497 281.969 35.3412 282.224 34.3017C282.393 33.6086 283.096 33.182 283.787 33.3524C284.483 33.5217 284.909 34.2205 284.739 34.9135C284.486 35.9519 259.227 139.993 244.491 250.09C225.042 395.388 232.593 485.144 266.325 509.658C282.505 521.418 305.181 518.489 333.711 500.958C529.097 381.086 566.394 404.163 567.886 405.207C568.472 405.614 568.615 406.42 568.205 407.006C567.797 407.589 566.988 407.734 566.402 407.324C566.328 407.275 556.947 401.473 523.736 410.43C493.201 418.661 435.682 441.433 335.069 503.161C318.901 513.095 304.494 518.454 291.959 519.225Z" fill="#736853"/>
<path d="M269.559 505.514C265.157 505.788 260.948 505.439 257.046 504.475C249.053 502.537 242.015 498.008 236.122 491.007H236.117L235.644 490.444C232.559 486.677 229.732 482.138 227.244 476.956C224.677 471.61 222.409 465.461 220.497 458.679C218.495 451.64 216.813 443.686 215.5 435.044C214.117 425.902 213.102 415.867 212.487 405.215C211.824 393.851 211.575 381.414 211.747 368.253C211.91 354.855 212.525 340.179 213.573 324.636C214.642 308.786 216.189 291.742 218.169 273.978C220.222 255.496 222.814 235.708 225.871 215.168L225.945 214.737C229.176 193.015 232.959 170.304 237.19 147.224C244.116 109.402 250.436 80.4161 252.832 69.7086C253.004 68.9351 253.769 68.4523 254.535 68.6248C255.301 68.7983 255.783 69.5661 255.611 70.3373C253.218 81.0287 246.908 109.971 239.992 147.744C235.738 170.94 231.939 193.763 228.7 215.581L228.627 216.01C225.601 236.367 223.035 255.975 220.999 274.296C219.024 292.019 217.48 309.022 216.414 324.83C215.371 340.32 214.758 354.944 214.595 368.29C214.425 381.384 214.672 393.751 215.331 405.048C215.942 415.612 216.947 425.558 218.315 434.612C219.611 443.133 221.267 450.968 223.237 457.891C225.103 464.52 227.314 470.512 229.807 475.709C232.108 480.497 234.697 484.7 237.509 488.208L237.854 488.622C243.438 495.451 250.122 499.848 257.719 501.69C261.382 502.592 265.352 502.865 269.504 502.647C282.508 501.828 298.046 495.277 315.689 483.173C505.852 353.01 544.557 370.62 546.11 371.435C546.807 371.798 547.079 372.665 546.716 373.366C546.357 374.064 545.507 374.338 544.813 373.985C544.601 373.889 534.736 369.611 501.95 381.166C471.691 391.834 415.093 418.6 317.292 485.543C299.221 497.938 283.203 504.657 269.683 505.507C269.642 505.51 269.601 505.512 269.559 505.514Z" fill="#736853"/>
<path d="M246.112 491.801C242.482 492.023 238.993 491.814 235.709 491.175C227.269 489.539 219.896 485.026 213.789 477.764C210.636 474.031 207.759 469.479 205.24 464.239C202.633 458.83 200.349 452.589 198.455 445.695C196.471 438.568 194.812 430.416 193.522 421.473C192.185 412.063 191.233 401.709 190.698 390.697C190.119 378.938 189.984 365.942 190.296 352.068C190.633 337.552 191.449 321.987 192.725 305.805C194.056 288.739 195.925 270.448 198.277 251.441C200.788 231.035 203.876 209.565 207.453 187.628C212.57 156.23 217.706 129.691 221.114 112.959C221.287 112.11 222.118 111.563 222.966 111.735C223.816 111.907 224.364 112.735 224.191 113.585C220.788 130.29 215.658 156.784 210.551 188.133C206.981 210.03 203.899 231.458 201.393 251.824C199.046 270.786 197.183 289.03 195.854 306.05C194.584 322.176 193.77 337.683 193.437 352.141C193.125 365.938 193.259 378.859 193.832 390.544C194.364 401.46 195.307 411.717 196.629 421.028C197.9 429.837 199.532 437.857 201.48 444.859C203.326 451.576 205.544 457.638 208.069 462.879C210.473 467.881 213.205 472.209 216.191 475.742C221.825 482.443 228.591 486.6 236.307 488.095C240.056 488.825 244.119 488.942 248.362 488.451C252.574 487.961 257.084 486.864 261.769 485.186C272.302 481.44 284.223 474.599 297.204 464.848C484.11 324.898 524.598 336.926 526.232 337.503C527.048 337.794 527.475 338.691 527.185 339.506C526.895 340.315 526.014 340.744 525.203 340.467C525.013 340.413 514.672 337.514 481.73 351.711C451.43 364.767 395.147 395.431 299.087 467.357C285.855 477.297 273.655 484.29 262.824 488.142C257.918 489.898 253.174 491.051 248.724 491.566C247.847 491.669 246.976 491.747 246.112 491.801Z" fill="#736853"/>
<path d="M223.959 478.086C221.191 478.256 218.526 478.163 215.992 477.806C207.405 476.596 199.916 472.349 193.728 465.183C190.555 461.517 187.668 457.004 185.151 451.767C182.558 446.401 180.279 440.108 178.378 433.072C176.408 425.799 174.786 417.515 173.555 408.456C172.271 398.926 171.384 388.291 170.92 376.845C170.42 364.576 170.404 351.095 170.865 336.774C171.338 321.529 172.356 305.063 173.885 287.835C175.478 269.57 177.683 249.977 180.436 229.604C183.464 206.989 187.129 183.615 191.328 160.133C191.493 159.212 192.373 158.597 193.296 158.763C194.217 158.927 194.831 159.809 194.665 160.731C190.475 184.164 186.818 207.488 183.795 230.056C181.051 250.378 178.853 269.918 177.262 288.133C175.738 305.298 174.725 321.699 174.254 336.881C173.793 351.123 173.812 364.521 174.307 376.707C174.766 388.048 175.644 398.576 176.915 408.001C178.125 416.915 179.718 425.051 181.651 432.186C183.496 439.021 185.702 445.113 188.205 450.294C190.594 455.262 193.314 459.524 196.291 462.965C201.929 469.491 208.715 473.353 216.464 474.447C220.21 474.974 224.299 474.87 228.61 474.127C232.884 473.396 237.462 472.02 242.22 470.037C246.956 468.072 251.989 465.454 257.186 462.256C264.233 457.955 271.813 452.464 279.723 445.934C460.939 296.935 502.675 303.327 504.359 303.674C505.277 303.861 505.867 304.756 505.68 305.675C505.493 306.584 504.613 307.169 503.704 307.002C503.47 306.962 492.764 305.53 460.227 322.217C430.275 337.581 375.02 371.972 281.878 448.554C273.846 455.182 266.133 460.767 258.957 465.148C253.612 468.436 248.419 471.137 243.522 473.169C238.531 475.25 233.706 476.698 229.182 477.472C227.407 477.775 225.663 477.98 223.959 478.086Z" fill="#736853"/>
<path d="M200.394 466.332C198.469 466.452 196.59 466.433 194.771 466.279C185.996 465.542 178.356 461.599 172.065 454.556C168.827 450.947 165.888 446.441 163.338 441.163C160.739 435.81 158.449 429.458 156.533 422.289C154.559 414.861 152.947 406.386 151.741 397.101C150.482 387.309 149.641 376.348 149.243 364.52C148.815 351.758 148.891 337.72 149.47 322.792C150.089 306.686 151.306 289.123 153.087 270.591C155.069 250.135 157.685 228.854 160.859 207.338C161.008 206.333 161.932 205.636 162.934 205.79C163.932 205.939 164.623 206.873 164.474 207.877C161.307 229.332 158.7 250.552 156.724 270.945C154.949 289.406 153.737 306.898 153.121 322.935C152.545 337.774 152.469 351.724 152.895 364.396C153.289 376.108 154.119 386.952 155.363 396.628C156.549 405.752 158.13 414.066 160.061 421.337C161.918 428.276 164.124 434.408 166.622 439.557C169.025 444.523 171.769 448.742 174.779 452.098C180.43 458.424 187.258 461.963 195.078 462.619C198.921 462.946 203.072 462.593 207.419 461.568C211.777 460.554 216.452 458.852 221.318 456.511C226.107 454.213 231.259 451.206 236.627 447.572C241.925 443.961 247.533 439.672 253.296 434.823C255.805 432.721 258.414 430.439 261.275 427.846C437.562 268.644 480.699 269.456 482.441 269.572C483.448 269.636 484.213 270.51 484.149 271.522C484.085 272.526 483.241 273.301 482.231 273.238C481.987 273.236 470.92 273.197 438.612 292.518C408.877 310.301 354.394 348.689 263.718 430.577C260.824 433.201 258.18 435.511 255.636 437.643C249.785 442.568 244.077 446.933 238.673 450.616C233.15 454.354 227.842 457.451 222.893 459.826C217.789 462.281 212.86 464.072 208.247 465.147C205.563 465.779 202.937 466.175 200.394 466.332Z" fill="#736853"/>
<path d="M175.23 454.579C174.196 454.642 173.181 454.664 172.184 454.646C163.121 454.458 155.246 450.909 148.775 444.099C145.453 440.62 142.456 436.23 139.868 431.055C137.206 425.74 134.875 419.435 132.936 412.317C130.929 404.876 129.306 396.383 128.111 387.063C126.831 377.105 126.004 366 125.654 354.056C125.271 340.984 125.425 326.61 126.11 311.332C126.876 294.189 128.307 275.716 130.368 256.425C130.484 255.353 131.462 254.581 132.53 254.689C133.609 254.803 134.392 255.765 134.277 256.838C132.227 276.048 130.799 294.441 130.037 311.505C129.355 326.688 129.204 340.966 129.583 353.941C129.929 365.759 130.747 376.737 132.011 386.569C133.183 395.714 134.771 404.034 136.732 411.3C138.601 418.168 140.841 424.231 143.388 429.316C145.804 434.145 148.577 438.215 151.629 441.415C157.354 447.438 164.296 450.575 172.262 450.742C176.157 450.814 180.406 450.185 184.877 448.869C189.302 447.573 194.094 445.536 199.12 442.814C204.086 440.146 209.386 436.737 214.879 432.68C220.294 428.698 226.074 423.949 232.062 418.559C235.208 415.742 238.552 412.607 242.001 409.241C244.925 406.398 247.813 403.596 250.66 400.852C415.588 241.777 458.74 237.245 460.496 237.13C460.499 237.128 460.502 237.128 460.504 237.128C461.585 237.062 462.516 237.877 462.587 238.949C462.658 240.018 461.849 240.942 460.777 241.025C460.314 241.066 416.145 246.681 253.397 403.655C250.556 406.395 247.671 409.193 244.752 412.029C241.266 415.43 237.882 418.604 234.698 421.456C228.618 426.929 222.736 431.762 217.221 435.815C211.582 439.982 206.121 443.492 200.996 446.247C195.732 449.098 190.681 451.24 185.992 452.614C182.259 453.712 178.652 454.369 175.23 454.579Z" fill="#736853"/>
<path d="M150.519 444.778C150.316 444.791 150.114 444.802 149.912 444.81C140.64 445.263 132.541 442.164 125.85 435.597C122.447 432.255 119.359 427.938 116.671 422.767C113.945 417.52 111.553 411.216 109.564 404.033C107.516 396.612 105.85 388.019 104.611 378.491C103.311 368.445 102.474 357.103 102.125 344.777C101.735 331.388 101.922 316.529 102.676 300.612C102.731 299.452 103.72 298.554 104.872 298.613C106.031 298.668 106.925 299.652 106.87 300.811C106.121 316.622 105.935 331.373 106.321 344.655C106.667 356.842 107.494 368.045 108.775 377.952C109.989 387.284 111.617 395.682 113.611 402.913C115.521 409.814 117.804 415.842 120.397 420.829C122.881 425.608 125.706 429.568 128.79 432.599C134.693 438.392 141.539 441.013 149.715 440.614C153.697 440.443 158.054 439.491 162.648 437.809C167.263 436.116 172.184 433.669 177.276 430.537C182.393 427.404 187.842 423.49 193.475 418.904C199.075 414.369 205.035 409.022 211.186 403.006C215.153 399.133 219.226 394.963 223.291 390.613C225.677 388.074 228.039 385.575 230.367 383.113C237.177 375.908 244.079 368.683 250.879 361.637C395.896 211.275 436.871 202.198 438.544 201.886C439.7 201.672 440.782 202.425 440.994 203.565C441.206 204.699 440.462 205.791 439.332 206.011C438.801 206.125 396.89 216.295 253.9 364.555C247.109 371.59 240.218 378.805 233.417 386C231.092 388.46 228.734 390.955 226.355 393.485C222.248 397.878 218.13 402.094 214.119 406.012C207.875 412.118 201.82 417.554 196.12 422.167C190.347 426.866 184.743 430.889 179.471 434.116C174.145 437.395 168.971 439.965 164.093 441.754C159.323 443.501 154.759 444.515 150.519 444.778Z" fill="#736853"/>
<path d="M125.926 436.947C117.258 437.48 109.642 434.876 103.26 429.192C99.7271 426.08 96.5085 421.948 93.7015 416.916C90.8509 411.786 88.3544 405.592 86.2834 398.508C84.1193 391.095 82.3703 382.562 81.0835 373.148C79.7036 363.1 78.8021 351.716 78.4065 339.315C78.3663 338.08 79.3207 337.059 80.5741 337.011C81.8102 336.972 82.8452 337.938 82.8831 339.172C83.2752 351.419 84.1641 362.647 85.5245 372.544C86.7802 381.743 88.4832 390.055 90.5864 397.258C92.5642 404.024 94.9308 409.91 97.6193 414.747C100.177 419.333 103.077 423.069 106.234 425.853C112.262 431.219 119.28 433.342 127.673 432.301C131.786 431.803 136.274 430.498 141.014 428.425C145.72 426.366 150.804 423.483 156.123 419.855C161.441 416.21 167.079 411.765 172.879 406.646C178.684 401.515 184.852 395.537 191.212 388.883C195.898 383.968 200.825 378.53 205.86 372.719C207.615 370.687 209.376 368.676 211.126 366.69C217.975 358.838 224.952 350.919 232.449 342.489C240.547 333.408 247.853 325.308 254.79 317.724C379.008 181.594 416.987 169.096 418.543 168.632C419.728 168.272 420.978 168.946 421.334 170.128C421.687 171.306 421.021 172.547 419.845 172.907C419.384 173.054 380.656 186.425 258.102 320.732C251.178 328.304 243.883 336.391 235.799 345.457C228.315 353.872 221.345 361.78 214.5 369.63C212.752 371.615 211.001 373.614 209.253 375.638C204.17 381.504 199.194 386.996 194.458 391.965C188.009 398.71 181.749 404.774 175.849 409.99C169.913 415.231 164.13 419.79 158.658 423.541C153.105 427.328 147.775 430.347 142.816 432.517C137.673 434.767 132.76 436.186 128.216 436.737C127.445 436.831 126.68 436.901 125.926 436.947Z" fill="#736853"/>
<path d="M100.564 431.07C92.9362 431.541 86.1128 429.479 80.2171 424.916C76.5139 422.055 73.1531 418.168 70.2299 413.367C67.2644 408.515 64.6413 402.549 62.4363 395.637C60.158 388.471 58.2852 380.123 56.8706 370.828C56.6758 369.533 57.5624 368.326 58.8545 368.13C60.1626 367.917 61.3527 368.821 61.5486 370.115C62.9266 379.166 64.7421 387.27 66.9448 394.198C69.033 400.748 71.498 406.366 74.2677 410.897C76.8907 415.206 79.8655 418.661 83.1094 421.167C89.3269 425.982 96.5157 427.459 105.084 425.687C109.367 424.809 113.978 423.097 118.8 420.596C123.659 418.097 128.89 414.721 134.36 410.555C139.832 406.379 145.635 401.341 151.603 395.587C157.62 389.795 163.98 383.117 170.509 375.736C176.064 369.458 181.938 362.44 187.97 354.876L188.263 354.509C189.202 353.333 190.133 352.166 191.066 351.01C198.494 341.736 205.944 332.544 213.2 323.695C220.943 314.221 228.75 304.795 236.404 295.679C244.498 286.044 252.558 276.582 260.36 267.555C361.636 150.473 395.231 135.954 396.611 135.393C397.823 134.904 399.202 135.486 399.693 136.698C400.182 137.908 399.603 139.284 398.4 139.779C397.964 139.964 363.789 155.219 263.937 270.654C256.15 279.666 248.105 289.111 240.025 298.727C232.384 307.826 224.591 317.237 216.86 326.697C209.613 335.536 202.175 344.713 194.753 353.978C193.821 355.135 192.893 356.296 191.958 357.465L191.666 357.833C185.587 365.459 179.659 372.539 174.054 378.876C167.441 386.353 160.99 393.123 154.882 398.998C148.787 404.879 142.846 410.035 137.226 414.324C131.536 418.66 126.067 422.185 120.969 424.805C115.767 427.505 110.742 429.362 106.037 430.327C104.171 430.712 102.345 430.96 100.564 431.07Z" fill="#736853"/>
<path d="M72.3357 427.151C65.7725 427.555 59.7853 426.074 54.4592 422.712C50.5343 420.236 46.956 416.72 43.8241 412.264C40.644 407.75 37.8197 402.138 35.4338 395.588C34.961 394.293 35.6312 392.858 36.9303 392.387C38.2294 391.91 39.6674 392.582 40.1402 393.881C42.3758 400.017 44.9947 405.233 47.9246 409.39C50.6754 413.306 53.774 416.366 57.1366 418.488C63.5484 422.532 71.2306 423.28 79.9766 420.708C84.395 419.422 89.2024 417.242 94.2738 414.231C99.3669 411.19 104.8 407.258 110.416 402.547C116.118 397.773 122.145 392.09 128.33 385.654C134.604 379.135 141.214 371.685 147.975 363.511C154.654 355.447 161.68 346.44 168.857 336.74L169.416 335.984C177.883 324.587 185.456 314.501 192.56 305.158C200.693 294.415 208.896 283.739 216.939 273.431C225.552 262.363 234.022 251.655 242.112 241.605C250.781 230.811 259.427 220.264 267.807 210.261C345.489 117.485 373.518 102.755 374.672 102.174C375.905 101.55 377.414 102.046 378.037 103.279C378.658 104.509 378.165 106.008 376.936 106.632C376.597 106.808 348.196 122.044 271.651 213.466C263.294 223.444 254.668 233.964 246.017 244.734C237.944 254.763 229.491 265.451 220.893 276.499C212.864 286.791 204.675 297.448 196.552 308.176C189.458 317.508 181.896 327.58 173.432 338.97L172.877 339.721C165.654 349.483 158.573 358.561 151.836 366.695C144.995 374.964 138.302 382.508 131.943 389.116C125.635 395.679 119.474 401.487 113.636 406.375C107.819 411.255 102.166 415.341 96.841 418.524C91.4012 421.755 86.2036 424.101 81.3871 425.506C78.2609 426.423 75.2415 426.973 72.3357 427.151Z" fill="#736853"/>
<path d="M44.3652 425.191C39.0848 425.517 34.1655 424.622 29.6507 422.503C25.5108 420.56 21.6816 417.551 18.2741 413.559C17.3291 412.454 17.4571 410.788 18.5586 409.84C19.6602 408.892 21.3194 409.02 22.2632 410.126C25.1828 413.546 28.4166 416.101 31.8756 417.725C38.6426 420.9 46.6837 420.71 55.7761 417.157C60.4315 415.326 65.433 412.593 70.6368 409.031C75.9344 405.411 81.5587 400.856 87.3544 395.49C93.1879 390.108 99.419 383.695 105.878 376.434C112.326 369.173 119.175 360.841 126.235 351.672C133.436 342.315 140.927 332.003 148.5 321.023L151.034 317.315C158.628 306.202 165.921 295.643 172.712 285.929C181.062 273.952 189.659 261.798 198.264 249.806C207.113 237.467 216.022 225.26 224.74 213.529C234.189 200.818 243.268 188.857 251.724 177.977C261.184 165.794 270.326 154.341 278.895 143.939C331.27 80.2656 351.916 67.5165 352.77 67.0049C354.016 66.2547 355.63 66.6665 356.372 67.9157C357.115 69.1638 356.711 70.7801 355.471 71.5291C355.267 71.653 334.478 84.651 282.945 147.3C274.406 157.664 265.299 169.075 255.867 181.22C247.433 192.073 238.377 204.004 228.951 216.683C220.251 228.391 211.361 240.573 202.528 252.89C193.937 264.862 185.353 276.996 177.015 288.955C170.233 298.657 162.952 309.202 155.371 320.295L152.826 324.017C145.196 335.079 137.652 345.468 130.393 354.898C123.258 364.165 116.33 372.591 109.798 379.945C103.224 387.337 96.8708 393.873 90.9139 399.371C84.9319 404.908 79.1042 409.627 73.5953 413.392C68.0658 417.175 62.7146 420.096 57.6856 422.07C53.0325 423.889 48.5829 424.93 44.3652 425.191Z" fill="#736853"/>
<path d="M12.6363 429.109C8.92036 429.338 5.37482 428.979 2.01222 428.025C0.544156 427.607 -0.308786 426.073 0.103964 424.598C0.519002 423.123 2.04538 422.268 3.51344 422.682C10.8057 424.751 19.3466 423.403 28.8993 418.675C33.794 416.259 39.0523 412.89 44.5301 408.661C50.0673 404.378 55.9442 399.12 61.9959 393.038C68.1563 386.841 74.6494 379.624 81.2992 371.587C88.0907 363.389 95.2355 354.103 102.536 343.984C110.027 333.603 117.876 322.089 125.865 309.76C127.948 306.547 130.052 303.252 132.196 299.874C139.179 288.851 145.453 279.031 151.376 269.852C160.934 255.052 170.074 241.11 178.54 228.416C187.835 214.423 197.306 200.446 206.687 186.879C216.537 172.644 226.2 159.006 235.408 146.342C245.343 132.674 255.028 119.751 264.192 107.934C274.336 94.8775 283.896 83.1016 292.606 72.9308C318.953 42.1378 330.384 34.1257 330.859 33.7994C332.115 32.9366 333.836 33.256 334.699 34.522C335.56 35.7835 335.24 37.5079 333.986 38.3765C333.874 38.4535 322.512 46.492 296.794 76.552C288.141 86.6551 278.637 98.3619 268.548 111.348C259.421 123.119 249.771 135.994 239.869 149.617C230.687 162.245 221.049 175.848 211.223 190.048C201.863 203.586 192.411 217.533 183.132 231.502C174.679 244.179 165.555 258.096 156.01 272.874C150.098 282.037 143.831 291.845 136.856 302.856C134.701 306.254 132.588 309.563 130.494 312.792C122.455 325.196 114.555 336.787 107.009 347.242C99.6363 357.462 92.4149 366.847 85.5467 375.137C78.7907 383.302 72.1832 390.646 65.9051 396.961C59.6841 403.214 53.6266 408.631 47.8984 413.061C42.129 417.517 36.5575 421.08 31.3369 423.657C24.7295 426.927 18.4731 428.748 12.6363 429.109Z" fill="#736853"/>
<path d="M3.09054 427.211C2.04439 427.275 0.99825 426.77 0.419484 425.814C-0.411918 424.443 0.0313434 422.661 1.40591 421.833C6.68026 418.659 12.2429 414.575 17.9409 409.691C23.8331 404.659 30.0135 398.651 36.3168 391.829C42.8566 384.771 49.6709 376.718 56.5759 367.89C63.8047 358.646 71.3034 348.364 78.8641 337.333C86.7395 325.865 95.0064 313.113 103.436 299.43C107.046 293.577 110.784 287.393 114.547 281.046C119.426 272.805 124.689 263.99 130.635 254.098C140.758 237.309 150.578 221.287 159.825 206.472C169.931 190.251 180.163 174.18 190.234 158.71C200.955 142.264 211.382 126.686 221.226 112.405C231.971 96.8212 242.39 82.2501 252.19 69.0914C292.593 14.8635 310.174 1.15649 310.903 0.60022C312.179 -0.377289 314.003 -0.134644 314.981 1.13589C315.957 2.40527 315.717 4.22296 314.447 5.19818C314.273 5.33212 296.601 19.213 256.861 72.5493C247.101 85.6497 236.726 100.165 226.021 115.689C216.205 129.928 205.806 145.465 195.115 161.868C185.064 177.305 174.853 193.343 164.766 209.534C155.533 224.325 145.729 240.321 135.623 257.081C129.684 266.959 124.428 275.764 119.557 283.995C115.775 290.371 112.018 296.585 108.393 302.465C99.9133 316.23 91.5935 329.062 83.6665 340.607C76.0392 351.736 68.4693 362.116 61.1624 371.455C54.1598 380.408 47.2387 388.587 40.5921 395.76C34.1395 402.746 27.7926 408.915 21.7293 414.091C15.7912 419.181 9.96338 423.459 4.41228 426.799C3.99658 427.048 3.54528 427.182 3.09054 427.211Z" fill="#736853"/>
</svg>
