<svg width="384" height="65" viewBox="0 0 384 65" fill="none" xmlns="http://www.w3.org/2000/svg">
<path d="M76.5349 39.704C76.5669 39.576 76.5829 39.48 76.5829 39.416C76.5829 39.352 76.5509 39.32 76.4869 39.32C76.4549 39.32 76.3589 39.4 76.1989 39.56C76.0709 39.72 75.8949 39.944 75.6709 40.232C75.4469 40.52 74.9669 41.064 74.2309 41.864C73.5269 42.664 72.7909 43.416 72.0229 44.12C69.9429 46.104 67.8629 47.624 65.7829 48.68C65.2709 48.936 64.7109 49.064 64.1029 49.064C61.7669 49.064 60.5989 47.304 60.5989 43.784C60.5989 40.648 62.0869 36.872 65.0629 32.456C66.4709 30.408 68.1509 28.408 70.1029 26.456C72.0869 24.472 74.1829 22.712 76.3909 21.176C78.5989 19.64 80.9989 18.408 83.5909 17.48C86.1829 16.52 88.7109 16.04 91.1749 16.04C91.5909 16.04 92.1509 16.184 92.8549 16.472C94.0389 16.984 94.6309 17.528 94.6309 18.104C94.6309 18.424 94.4229 18.6 94.0069 18.632C93.8469 18.632 93.7669 18.696 93.7669 18.824C93.7669 18.952 93.9909 19.208 94.4389 19.592C94.9189 19.944 95.1589 20.296 95.1589 20.648C95.1589 20.968 95.0469 21.256 94.8229 21.512C93.2229 23.272 91.9429 24.744 90.9829 25.928C90.0229 27.08 89.2869 27.944 88.7749 28.52C88.2949 29.096 87.7349 29.768 87.0949 30.536C86.4869 31.272 85.7989 32.216 85.0309 33.368C84.2629 34.488 83.5589 35.608 82.9189 36.728C81.4469 39.448 80.7109 41.944 80.7109 44.216C80.7109 46.456 80.9189 48.584 81.3349 50.6C81.7509 52.648 82.1829 53.896 82.6309 54.344C82.6309 54.44 82.5189 54.488 82.2949 54.488C80.8229 54.488 79.5589 53.912 78.5029 52.76C76.5829 50.616 75.6229 47.8 75.6229 44.312C75.6229 43.064 75.9269 41.528 76.5349 39.704ZM82.8229 28.904L92.0389 19.64C92.2629 19.416 92.3749 19.256 92.3749 19.16C92.3749 19.064 92.2949 19.016 92.1349 19.016C89.6709 19.4 87.0629 20.408 84.3109 22.04C81.5589 23.672 79.0629 25.56 76.8229 27.704C74.5829 29.848 72.5189 32.04 70.6309 34.28C68.7429 36.52 67.2709 38.536 66.2149 40.328C65.1909 42.12 64.6789 43.4 64.6789 44.168C64.6789 44.296 64.7589 44.36 64.9189 44.36C65.1109 44.36 65.4629 44.248 65.9749 44.024C66.4869 43.768 68.2469 42.36 71.2549 39.8C74.2949 37.208 78.1509 33.576 82.8229 28.904ZM94.0433 31.112C94.2993 31.112 94.7153 31.24 95.2913 31.496C95.8993 31.752 96.2032 32.04 96.2032 32.36C96.2032 32.584 96.1233 32.808 95.9633 33.032L92.3633 38.024C91.9473 38.536 91.7393 38.824 91.7393 38.888C91.7393 38.952 91.7553 38.984 91.7873 38.984L92.0273 38.84C95.7393 36.248 98.7953 33.976 101.195 32.024C101.643 31.704 102.011 31.544 102.299 31.544C102.619 31.544 102.827 31.576 102.923 31.64L104.267 32.024C104.587 32.184 104.747 32.392 104.747 32.648C104.747 32.904 104.683 33.112 104.555 33.272C103.947 33.944 103.243 34.712 102.443 35.576C101.675 36.408 101.099 37.048 100.715 37.496C100.331 37.912 99.8993 38.392 99.4193 38.936C98.9393 39.48 98.5873 39.896 98.3633 40.184C98.1713 40.472 97.9473 40.808 97.6913 41.192C97.4353 41.544 97.2593 41.848 97.1633 42.104C96.9713 42.84 96.8753 43.48 96.8753 44.024C96.8753 44.312 97.0513 44.456 97.4033 44.456C97.7873 44.456 98.4593 44.232 99.4193 43.784C100.411 43.336 101.579 42.648 102.923 41.72C104.299 40.792 106.107 39.48 108.347 37.784C110.619 36.056 112.603 34.6 114.299 33.416C114.587 33.64 114.731 33.912 114.731 34.232C114.731 34.552 114.587 34.84 114.299 35.096C113.275 36.088 111.979 37.336 110.411 38.84C108.843 40.312 106.443 42.296 103.211 44.792C100.011 47.288 97.7713 48.536 96.4913 48.536C94.0273 48.536 92.7953 47.224 92.7953 44.6C92.7953 43.608 93.1793 42.568 93.9473 41.48L96.0113 38.648C96.2033 38.36 96.2993 38.2 96.2993 38.168C96.2993 38.104 96.2033 38.152 96.0113 38.312C90.4433 42.952 86.8913 45.672 85.3553 46.472C85.0993 46.632 84.7793 46.712 84.3953 46.712C83.3392 46.712 82.8112 46.232 82.8112 45.272C82.8112 44.952 82.8912 44.664 83.0512 44.408C85.4193 42.232 87.0833 40.456 88.0433 39.08C88.8113 38.312 89.6113 37.24 90.4433 35.864C91.3073 34.488 92.0273 33.352 92.6033 32.456C93.2113 31.56 93.6913 31.112 94.0433 31.112ZM127.641 24.824L130.089 24.776C133.257 24.776 135.561 25.224 137.001 26.12C137.705 26.344 138.057 26.632 138.057 26.984C138.057 27.24 137.737 27.416 137.097 27.512C136.489 27.608 134.329 27.864 130.617 28.28C126.937 28.664 124.409 28.888 123.033 28.952C122.425 28.984 121.017 30.04 118.809 32.12C116.633 34.2 114.553 36.488 112.569 38.984C110.585 41.48 109.593 43.224 109.593 44.216C109.593 44.376 109.673 44.52 109.833 44.648C109.993 44.744 110.185 44.792 110.409 44.792C110.665 44.792 111.049 44.696 111.561 44.504C117.641 40.92 123.545 37 129.273 32.744C129.561 32.968 129.705 33.24 129.705 33.56C129.705 33.88 129.545 34.2 129.225 34.52C128.905 34.808 128.425 35.24 127.785 35.816C127.177 36.392 126.025 37.432 124.329 38.936C122.633 40.44 121.033 41.784 119.529 42.968C115.497 46.232 112.681 48.12 111.081 48.632C110.505 48.792 109.817 48.872 109.017 48.872C108.249 48.872 107.529 48.472 106.857 47.672C106.217 46.872 105.897 45.784 105.897 44.408C105.897 43.032 106.777 41.048 108.537 38.456C110.329 35.864 112.761 33.208 115.833 30.488C116.121 30.264 116.265 30.056 116.265 29.864C116.265 29.672 115.929 29.576 115.257 29.576L112.233 29.672C107.977 29.672 105.785 29.192 105.657 28.232C104.665 28.04 104.169 27.752 104.169 27.368C104.169 27.24 104.233 27.176 104.361 27.176C104.489 27.144 104.601 27.128 104.697 27.128C104.793 27.096 104.953 27.064 105.177 27.032C105.401 27 107.161 26.744 110.457 26.264C113.785 25.784 117.561 25.384 121.785 25.064L125.097 20.648C125.289 20.264 125.961 20.072 127.113 20.072C128.265 20.072 128.841 20.312 128.841 20.792C128.841 20.952 128.713 21.24 128.457 21.656L127.257 23.336C127.097 23.848 127.001 24.232 126.969 24.488C126.969 24.712 127.193 24.824 127.641 24.824ZM132.368 42.776C132.368 42.936 132.432 43.016 132.56 43.016C132.688 43.016 132.944 42.92 133.328 42.728C138.096 40.168 143.344 36.76 149.072 32.504C149.36 32.728 149.504 33 149.504 33.32C149.504 33.64 149.344 33.944 149.024 34.232C148.704 34.52 148.24 34.936 147.632 35.48C147.056 36.024 145.936 37 144.272 38.408C142.608 39.816 141.056 41.096 139.616 42.248C135.84 45.288 133.056 47.08 131.264 47.624C130.688 47.784 130.064 47.864 129.392 47.864C128.304 47.864 127.76 47.016 127.76 45.32C127.76 44.744 128.112 43.8 128.816 42.488C129.52 41.144 129.872 40.168 129.872 39.56C129.872 39.496 129.824 39.464 129.728 39.464C129.632 39.464 129.392 39.608 129.008 39.896C124.56 43.352 121.856 45.752 120.896 47.096C120.704 47.384 120.448 47.528 120.128 47.528C119.424 47.528 118.976 47.192 118.784 46.52C118.784 45.56 120.128 43.128 122.816 39.224C125.536 35.32 128.72 31.224 132.368 26.936C136.016 22.616 138.992 19.576 141.296 17.816C141.968 17.176 143.536 16.856 146 16.856C146.384 16.952 146.576 17.112 146.576 17.336C146.576 17.56 146.464 17.784 146.24 18.008C137.024 26.904 131.168 33.064 128.672 36.488C128.544 36.616 128.368 36.856 128.144 37.208C127.952 37.528 127.856 37.736 127.856 37.832L127.904 37.88C128.032 37.88 129.04 37.176 130.928 35.768C132.816 34.328 134.224 33.304 135.152 32.696C135.44 32.408 136.048 32.264 136.976 32.264C137.776 32.36 138.176 32.616 138.176 33.032C138.176 33.16 138.144 33.272 138.08 33.368C135.712 36.728 134.288 38.872 133.808 39.8C132.848 41.304 132.368 42.296 132.368 42.776ZM143.08 44.888C144.104 44.888 145.368 44.216 146.872 42.872C148.376 41.528 149.16 40.6 149.224 40.088C148.84 39.768 148.424 39.192 147.976 38.36C147.56 37.496 147.336 37.064 147.304 37.064C146.312 37.992 145.432 39.064 144.664 40.28C143.448 42.328 142.84 43.736 142.84 44.504C142.84 44.76 142.92 44.888 143.08 44.888ZM153.448 33.128C153.128 33.128 152.456 33.624 151.432 34.616C150.44 35.608 149.944 36.296 149.944 36.68C149.944 36.776 150.04 36.968 150.232 37.256C150.424 37.544 150.568 37.688 150.664 37.688C151.208 37.688 151.816 37.032 152.488 35.72C153.192 34.408 153.544 33.656 153.544 33.464C153.544 33.24 153.512 33.128 153.448 33.128ZM153.544 39.32C154.44 39.32 155.832 38.776 157.72 37.688C159.64 36.6 161.32 35.512 162.76 34.424L164.92 32.744C165.208 32.968 165.352 33.24 165.352 33.56C165.352 33.88 165.208 34.168 164.92 34.424C159.64 39.32 155.64 41.768 152.92 41.768C152.728 41.768 152.44 41.736 152.056 41.672C148.44 45.864 145.336 47.96 142.744 47.96C141.016 47.704 139.928 47.096 139.48 46.136C139.224 45.656 139.096 45.048 139.096 44.312C139.096 42.2 140.312 39.688 142.744 36.776C145.176 33.832 148.232 31.672 151.912 30.296C152.232 30.296 152.472 30.376 152.632 30.536C152.792 30.664 152.936 30.744 153.064 30.776C153.192 30.776 153.352 30.712 153.544 30.584C153.768 30.424 154.056 30.344 154.408 30.344C154.76 30.312 155.128 30.504 155.512 30.92C156.024 31.336 156.28 31.848 156.28 32.456C156.28 34.248 155.368 36.536 153.544 39.32ZM166.606 31.112C166.862 31.112 167.278 31.24 167.854 31.496C168.462 31.752 168.766 32.04 168.766 32.36C168.766 32.584 168.686 32.808 168.526 33.032L164.926 38.024C164.51 38.536 164.302 38.824 164.302 38.888C164.302 38.952 164.318 38.984 164.35 38.984L164.59 38.84C168.302 36.248 171.358 33.976 173.758 32.024C174.206 31.704 174.574 31.544 174.862 31.544C175.182 31.544 175.39 31.576 175.486 31.64L176.83 32.024C177.15 32.184 177.31 32.392 177.31 32.648C177.31 32.904 177.246 33.112 177.118 33.272C176.51 33.944 175.806 34.712 175.006 35.576C174.238 36.408 173.662 37.048 173.278 37.496C172.894 37.912 172.462 38.392 171.982 38.936C171.502 39.48 171.15 39.896 170.926 40.184C170.734 40.472 170.51 40.808 170.254 41.192C169.998 41.544 169.822 41.848 169.726 42.104C169.534 42.84 169.438 43.48 169.438 44.024C169.438 44.312 169.614 44.456 169.966 44.456C170.35 44.456 171.022 44.232 171.982 43.784C172.974 43.336 174.142 42.648 175.486 41.72C176.862 40.792 178.67 39.48 180.91 37.784C183.182 36.056 185.166 34.6 186.862 33.416C187.15 33.64 187.294 33.912 187.294 34.232C187.294 34.552 187.15 34.84 186.862 35.096C185.838 36.088 184.542 37.336 182.974 38.84C181.406 40.312 179.006 42.296 175.774 44.792C172.574 47.288 170.334 48.536 169.054 48.536C166.59 48.536 165.358 47.224 165.358 44.6C165.358 43.608 165.742 42.568 166.51 41.48L168.574 38.648C168.766 38.36 168.862 38.2 168.862 38.168C168.862 38.104 168.766 38.152 168.574 38.312C163.006 42.952 159.454 45.672 157.918 46.472C157.662 46.632 157.342 46.712 156.958 46.712C155.902 46.712 155.374 46.232 155.374 45.272C155.374 44.952 155.454 44.664 155.614 44.408C157.982 42.232 159.646 40.456 160.606 39.08C161.374 38.312 162.174 37.24 163.006 35.864C163.87 34.488 164.59 33.352 165.166 32.456C165.774 31.56 166.254 31.112 166.606 31.112ZM196.364 31.496C197.868 31.656 198.62 31.992 198.62 32.504C198.62 32.728 198.492 32.984 198.236 33.272C193.724 38.296 188.54 44.696 182.684 52.472C180.988 54.776 179.26 56.952 177.5 59C175.74 61.048 174.092 62.536 172.556 63.464C171.02 64.424 169.42 64.904 167.756 64.904C166.924 64.904 166.188 64.68 165.548 64.232C164.908 63.784 164.588 63.176 164.588 62.408C164.588 60.616 165.452 58.76 167.18 56.84C168.908 54.92 170.844 53.352 172.988 52.136C175.132 50.952 176.988 50.264 178.556 50.072L179.564 50.216C179.884 50.184 181.052 48.952 183.068 46.52C185.116 44.088 186.14 42.808 186.14 42.68C186.172 42.52 186.156 42.44 186.092 42.44L185.18 43.16C182.78 45.4 180.908 46.52 179.564 46.52C178.7 46.52 178.268 45.912 178.268 44.696C178.268 43.064 179.596 40.488 182.252 36.968C184.908 33.448 186.86 31.688 188.108 31.688C188.204 31.688 188.316 31.72 188.444 31.784C189.34 32.008 189.788 32.328 189.788 32.744C189.788 32.904 189.74 33.032 189.644 33.128C189.58 33.192 189.26 33.496 188.684 34.04C188.14 34.584 187.596 35.16 187.052 35.768C186.508 36.344 185.932 36.984 185.324 37.688C183.948 39.288 183.26 40.488 183.26 41.288C183.26 41.48 183.356 41.576 183.548 41.576C183.772 41.576 184.172 41.4 184.748 41.048C189.292 37.944 192.844 34.984 195.404 32.168C195.628 31.72 195.948 31.496 196.364 31.496ZM167.084 62.792C168.204 62.44 169.708 61.336 171.596 59.48C173.484 57.656 175.1 55.928 176.444 54.296L178.46 51.8C178.652 51.544 178.748 51.384 178.748 51.32C178.748 51.256 178.7 51.224 178.604 51.224C177.58 51.224 176.124 52.008 174.236 53.576C172.316 55.144 170.62 56.856 169.148 58.712C167.644 60.568 166.892 61.88 166.892 62.648C166.892 62.744 166.956 62.792 167.084 62.792ZM206.737 22.328C206.737 21.848 207.057 21.432 207.697 21.08L213.313 18.872C213.441 18.808 213.617 18.776 213.841 18.776C214.097 18.776 214.321 18.888 214.513 19.112C214.705 19.336 214.913 19.448 215.137 19.448C215.361 19.448 215.825 19.368 216.529 19.208C217.265 19.016 218.241 18.792 219.457 18.536C220.673 18.248 222.033 17.976 223.537 17.72C227.057 17.112 230.721 16.808 234.529 16.808C239.041 16.808 242.273 17.144 244.225 17.816C244.993 18.104 245.633 18.504 246.145 19.016C246.689 19.496 246.961 20.088 246.961 20.792C246.961 21.208 246.673 21.416 246.097 21.416C238.097 21.64 231.553 22.152 226.465 22.952C225.953 23.016 225.697 23.192 225.697 23.48C225.697 23.576 225.697 23.672 225.697 23.768C225.729 23.832 225.617 24.008 225.361 24.296L219.937 30.104C219.713 30.328 219.601 30.504 219.601 30.632C219.601 30.728 219.633 30.776 219.697 30.776C219.793 30.776 220.001 30.744 220.321 30.68C222.401 30.552 224.321 30.488 226.081 30.488C227.841 30.488 228.849 30.584 229.105 30.776C230.513 31.832 231.329 32.52 231.553 32.84C231.809 33.16 231.937 33.416 231.937 33.608C231.937 34.024 231.585 34.28 230.881 34.376C222.433 35.208 217.873 35.624 217.201 35.624C216.529 35.592 216.097 35.576 215.905 35.576C215.393 35.576 214.817 35.976 214.177 36.776L208.321 44.552C208.161 44.808 208.081 45 208.081 45.128C208.081 45.224 208.145 45.272 208.273 45.272C208.401 45.272 208.593 45.208 208.849 45.08C211.857 44.6 214.657 44.36 217.249 44.36C219.873 44.36 221.825 44.44 223.105 44.6C224.865 44.6 226.753 45.896 228.769 48.488C228.929 48.712 229.009 48.92 229.009 49.112C229.009 49.304 228.769 49.4 228.289 49.4C220.321 49.4 214.257 49.56 210.097 49.88C209.937 49.912 209.729 49.928 209.473 49.928C208.097 49.928 207.153 49.608 206.641 48.968C206.545 48.776 206.385 48.68 206.161 48.68C205.937 48.68 205.745 48.792 205.585 49.016C205.393 49.24 205.249 49.352 205.153 49.352C205.057 49.352 204.865 49.256 204.577 49.064C204.289 48.872 204.001 48.536 203.713 48.056C203.393 47.608 203.233 47.128 203.233 46.616C203.233 46.072 203.345 45.576 203.569 45.128C203.761 44.68 204.033 44.104 204.385 43.4C204.705 42.696 205.441 41.496 206.593 39.8C207.777 38.072 209.009 36.6 210.289 35.384C210.449 35.224 210.529 35.08 210.529 34.952C210.529 34.792 210.353 34.712 210.001 34.712C209.681 34.712 209.345 34.6 208.993 34.376C208.673 34.12 208.513 33.784 208.513 33.368C208.513 32.92 209.073 32.552 210.193 32.264L212.785 31.592C212.817 31.592 212.833 31.592 212.833 31.592C213.345 31.592 213.857 31.256 214.369 30.584C218.081 26.968 220.353 24.952 221.185 24.536C221.473 24.344 221.617 24.2 221.617 24.104C221.617 23.976 221.521 23.912 221.329 23.912C221.137 23.912 220.977 23.928 220.849 23.96C217.873 24.44 215.505 24.68 213.745 24.68C211.985 24.68 210.705 24.6 209.905 24.44C209.105 24.28 208.513 24.088 208.129 23.864C207.297 23.32 206.849 22.888 206.785 22.568L206.737 22.328ZM239.001 43.208C239.001 43.88 239.337 44.216 240.009 44.216C242.185 44.216 247.785 41 256.809 34.568C257.161 34.312 257.689 33.928 258.393 33.416C259.129 32.904 259.561 32.6 259.689 32.504C259.977 32.728 260.121 33 260.121 33.32C260.121 33.64 259.977 33.928 259.689 34.184C257.321 36.552 253.641 39.416 248.649 42.776C243.689 46.136 240.329 47.816 238.569 47.816C236.393 47.816 235.305 46.408 235.305 43.592C235.145 43.656 234.569 43.992 233.577 44.6C230.921 46.296 229.209 47.144 228.441 47.144C228.089 47.144 227.769 47 227.481 46.712C227.161 46.392 227.001 46.024 227.001 45.608C227.001 45.16 227.289 44.792 227.865 44.504C228.409 44.216 229.449 43.752 230.985 43.112C232.521 42.44 234.057 41.576 235.593 40.52C235.625 40.424 235.657 40.216 235.689 39.896C235.721 39.576 235.785 39.288 235.881 39.032C236.169 38.008 236.681 36.728 237.417 35.192C237.417 35.096 237.353 35.048 237.225 35.048C236.393 35.048 235.977 34.92 235.977 34.664C235.977 34.504 236.169 34.312 236.553 34.088C237.385 33.608 238.185 32.856 238.953 31.832C239.689 31.096 240.841 30.68 242.409 30.584C242.921 30.584 243.177 30.76 243.177 31.112C243.177 31.56 242.761 32.264 241.929 33.224C240.905 35.016 240.393 36.2 240.393 36.776C240.393 36.84 240.425 36.872 240.489 36.872C241.001 36.872 242.569 36.088 245.193 34.52C247.817 32.952 249.273 32.008 249.561 31.688C249.881 31.368 250.121 31.208 250.281 31.208C250.473 31.208 250.681 31.368 250.905 31.688C251.129 31.976 251.241 32.232 251.241 32.456C251.241 32.648 251.145 32.824 250.953 32.984C250.761 33.144 249.929 33.752 248.457 34.808C243.337 38.424 240.265 40.6 239.241 41.336C239.209 41.464 239.177 41.64 239.145 41.864L239.049 42.392C239.017 42.712 239.001 42.984 239.001 43.208ZM255.93 43.496C257.05 43.496 258.074 42.824 259.002 41.48C259.962 40.104 260.634 38.728 261.018 37.352C261.402 35.944 261.594 34.824 261.594 33.992C261.594 33.768 261.418 33.656 261.066 33.656C260.746 33.656 260.362 33.832 259.914 34.184L253.626 39.032C253.178 39.288 252.666 39.416 252.09 39.416C251.514 39.416 251.226 39.208 251.226 38.792C251.226 38.504 251.258 38.312 251.322 38.216C251.418 38.12 251.658 37.96 252.042 37.736C254.41 36.104 257.642 33.448 261.738 29.768C262.218 29.128 262.65 28.808 263.034 28.808C263.418 28.808 264.058 28.936 264.954 29.192C265.85 29.416 266.298 29.688 266.298 30.008C266.298 31.928 266.122 33.672 265.77 35.24C265.418 36.808 265.05 38.008 264.666 38.84C264.314 39.64 264.138 40.072 264.138 40.136C264.138 40.2 264.17 40.232 264.234 40.232C264.298 40.232 264.426 40.184 264.618 40.088C267.018 38.872 270.074 36.888 273.786 34.136L274.938 33.272C275.226 33.496 275.37 33.768 275.37 34.088C275.37 34.408 275.226 34.696 274.938 34.952C274.874 34.952 274.042 35.624 272.442 36.968C270.874 38.312 269.114 39.784 267.162 41.384C265.242 42.952 263.178 44.392 260.97 45.704C258.762 47.016 257.05 47.672 255.834 47.672C252.826 47.672 251.322 45.864 251.322 42.248C251.322 41.96 251.434 41.704 251.658 41.48C251.914 41.224 252.234 41.096 252.618 41.096C252.618 41.256 252.698 41.512 252.858 41.864C253.05 42.184 253.242 42.456 253.434 42.68C254.01 43.224 254.842 43.496 255.93 43.496ZM288.985 24.824L291.433 24.776C294.601 24.776 296.905 25.224 298.345 26.12C299.049 26.344 299.401 26.632 299.401 26.984C299.401 27.24 299.081 27.416 298.441 27.512C297.833 27.608 295.673 27.864 291.961 28.28C288.281 28.664 285.753 28.888 284.377 28.952C283.769 28.984 282.361 30.04 280.153 32.12C277.977 34.2 275.897 36.488 273.913 38.984C271.929 41.48 270.937 43.224 270.937 44.216C270.937 44.376 271.017 44.52 271.177 44.648C271.337 44.744 271.529 44.792 271.753 44.792C272.009 44.792 272.393 44.696 272.905 44.504C278.985 40.92 284.889 37 290.617 32.744C290.905 32.968 291.049 33.24 291.049 33.56C291.049 33.88 290.889 34.2 290.569 34.52C290.249 34.808 289.769 35.24 289.129 35.816C288.521 36.392 287.369 37.432 285.673 38.936C283.977 40.44 282.377 41.784 280.873 42.968C276.841 46.232 274.025 48.12 272.425 48.632C271.849 48.792 271.161 48.872 270.361 48.872C269.593 48.872 268.873 48.472 268.201 47.672C267.561 46.872 267.241 45.784 267.241 44.408C267.241 43.032 268.121 41.048 269.881 38.456C271.673 35.864 274.105 33.208 277.177 30.488C277.465 30.264 277.609 30.056 277.609 29.864C277.609 29.672 277.273 29.576 276.601 29.576L273.577 29.672C269.321 29.672 267.129 29.192 267.001 28.232C266.009 28.04 265.513 27.752 265.513 27.368C265.513 27.24 265.577 27.176 265.705 27.176C265.833 27.144 265.945 27.128 266.041 27.128C266.137 27.096 266.297 27.064 266.521 27.032C266.745 27 268.505 26.744 271.801 26.264C275.129 25.784 278.905 25.384 283.129 25.064L286.441 20.648C286.633 20.264 287.305 20.072 288.457 20.072C289.609 20.072 290.185 20.312 290.185 20.792C290.185 20.952 290.057 21.24 289.801 21.656L288.601 23.336C288.441 23.848 288.345 24.232 288.313 24.488C288.313 24.712 288.537 24.824 288.985 24.824ZM296.88 32.504C296.048 32.504 294.64 33.368 292.656 35.096C290.672 36.792 289.68 37.832 289.68 38.216C289.68 38.28 289.728 38.312 289.824 38.312C290.528 38.312 291.92 37.528 294 35.96C296.112 34.392 297.168 33.32 297.168 32.744C297.168 32.584 297.072 32.504 296.88 32.504ZM286.656 47.864C284.192 47.864 282.96 46.36 282.96 43.352C282.96 41.464 283.776 39.464 285.408 37.352C287.072 35.208 289.024 33.464 291.264 32.12C293.504 30.744 295.488 30.056 297.216 30.056C297.984 30.056 298.688 30.36 299.328 30.968C300 31.576 300.336 32.168 300.336 32.744C300.336 33.8 299.584 35 298.08 36.344C296.576 37.656 294.992 38.728 293.328 39.56C291.696 40.36 290.608 40.76 290.064 40.76C289.552 40.76 289.168 40.52 288.912 40.04C288.784 39.944 288.608 39.896 288.384 39.896C288.16 39.896 287.792 40.328 287.28 41.192C286.768 42.024 286.512 42.712 286.512 43.256C286.512 43.768 286.704 44.088 287.088 44.216C289.52 44.216 292.16 43.512 295.008 42.104C297.856 40.664 301.792 38.152 306.816 34.568C307.168 34.312 307.696 33.928 308.4 33.416C309.136 32.904 309.568 32.6 309.696 32.504C309.984 32.728 310.128 33 310.128 33.32C310.128 33.64 309.984 33.928 309.696 34.184C308.096 35.784 306.016 37.576 303.456 39.56C300.928 41.544 298.016 43.432 294.72 45.224C291.424 46.984 288.736 47.864 286.656 47.864ZM303.276 42.968C303.66 42.968 304.828 42.184 306.78 40.616C308.764 39.048 310.652 37.48 312.444 35.912L315.084 33.56C315.212 33.432 315.276 33.352 315.276 33.32C315.276 33.256 315.228 33.224 315.132 33.224C313.916 33.224 312.332 33.928 310.38 35.336C308.428 36.712 306.732 38.184 305.292 39.752C303.884 41.288 303.18 42.328 303.18 42.872C303.18 42.936 303.212 42.968 303.276 42.968ZM311.58 43.688C311.58 43.784 311.676 43.832 311.868 43.832C312.092 43.832 313.036 43.352 314.7 42.392C319.052 39.928 324.172 36.632 330.06 32.504C330.348 32.728 330.492 33 330.492 33.32C330.492 33.64 330.332 33.944 330.012 34.232C329.692 34.52 329.228 34.936 328.62 35.48C328.044 36.024 326.924 37 325.26 38.408C323.596 39.816 322.044 41.096 320.604 42.248C316.828 45.288 314.044 47.08 312.252 47.624C311.676 47.784 311.052 47.864 310.38 47.864C309.74 47.768 309.148 47.528 308.604 47.144C308.092 46.76 307.836 46.312 307.836 45.8C307.836 45.288 307.948 44.536 308.172 43.544C308.428 42.52 308.556 41.976 308.556 41.912C308.556 41.816 308.524 41.768 308.46 41.768C308.428 41.768 308.348 41.832 308.22 41.96C307.804 42.408 307.276 42.968 306.636 43.64C305.996 44.28 304.892 45.16 303.324 46.28C301.788 47.368 300.54 47.912 299.58 47.912C299.42 47.88 299.228 47.816 299.004 47.72C298.748 47.656 298.428 47.4 298.044 46.952C297.66 46.504 297.468 45.864 297.468 45.032C297.468 44.2 298.092 42.936 299.34 41.24C300.588 39.512 302.108 37.832 303.9 36.2C305.692 34.536 307.66 33.096 309.804 31.88C311.948 30.664 313.82 30.056 315.42 30.056C315.996 30.056 316.476 30.488 316.86 31.352C316.828 31.128 317.868 29.688 319.98 27.032C322.092 24.344 324.588 21.656 327.468 18.968C330.38 16.248 332.636 14.888 334.236 14.888C334.78 14.888 335.052 15.144 335.052 15.656C335.052 16.456 334.508 17.544 333.42 18.92C332.364 20.296 331.212 21.576 329.964 22.76C328.748 23.944 327.164 25.432 325.212 27.224C320.7 31.32 317.292 34.808 314.988 37.688C312.716 40.568 311.58 42.568 311.58 43.688Z" fill="#F2F2F2"/>
<path d="M251 32C251.289 31.9702 251.672 31.6483 251.912 31.5131C252.783 31.0229 253.808 30.6957 254.737 30.312C256.731 29.4883 258.769 28.4949 260.888 27.9784C261.845 27.7452 262.829 27.5851 263.799 27.4049C264.755 27.2272 265.722 27.0101 266.701 27.001C267.805 26.9907 268.902 27.0659 270 27.0659" stroke="#F2F2F2" stroke-linecap="round"/>
</svg>
